<?xml version="1.0" encoding="utf-8"?>
<!-- Generator: Adobe Illustrator 28.0.0, SVG Export Plug-In . SVG Version: 6.00 Build 0)  -->
<svg version="1.1" xmlns="http://www.w3.org/2000/svg" xmlns:xlink="http://www.w3.org/1999/xlink" x="0px" y="0px"
	 viewBox="0 0 2060 810" style="enable-background:new 0 0 2060 810;" xml:space="preserve">
<style type="text/css">
	.st0{fill:#080000;}
	.st1{fill:none;stroke:#CC9933;stroke-width:7;stroke-miterlimit:10;}
</style>
<g id="BKG">
</g>
<g id="Art">
	<g>
		<path class="st0" d="M771.9,497.3c0,2.2,0.7,3.4,2.5,4.3c1.9,0.9,3.9,1,4,1l41.2,0.2c7.2,0,17.9,4.4,17.9,16.6
			s-9.9,16.6-16.6,16.6h-60.4v-11.3h60.3c0.5,0,2-0.2,3.2-0.9c1.1-0.6,2.1-1.6,2.1-4.4c0-2.2-0.7-3.4-2.5-4.3c-1.8-0.9-3.9-1-4-1
			l-41.2-0.2v0c-7.2,0-17.9-4.4-17.9-16.6c0-12.2,9.9-16.6,16.6-16.6h60.4V492h-60.3c-0.5,0-2,0.2-3.2,0.9
			C773,493.5,771.9,494.5,771.9,497.3z"/>
		<path class="st0" d="M930.6,506.7c0,0.7,0,1.5,0,2.2c0,5.7,0,9.8-0.6,13.3c-0.5,3-1.7,7.2-6,10.1c-5.5,3.6-13.6,3.7-31.5,3.9
			c-2.8,0-5.4,0-7.7,0c-14.2,0-21.3-0.8-25.9-5.3c-4.7-4.7-4.7-11.7-4.7-22.2c0-11.7,0.1-18.8,6-23.2c5.1-3.8,12.6-3.9,28.9-4.1
			l3.3,0c20.3-0.3,28.7-0.4,34,4.8C930.7,490.8,930.6,497.1,930.6,506.7z M918.3,494.4c-1.3-1.3-7.3-1.6-15.3-1.6
			c-3.3,0-6.9,0.1-10.6,0.1l-3.3,0c-11.7,0.2-20.1,0.3-22.3,1.9c-1.4,1-1.4,7.1-1.4,14.2c0,6.5,0,12.7,1.4,14.1
			c2.2,2.2,14.1,2.1,25.6,2c13.2-0.1,22.7-0.2,25.4-2c1.6-1.1,1.6-6.5,1.6-14.1c0-0.8,0-1.5,0-2.3
			C919.3,501.1,919.4,495.4,918.3,494.4z"/>
		<path class="st0" d="M1024.3,508.3c0.1,6.1-2.4,12-6.9,16.7c-4.8,4.9-14.2,10.8-31.5,11c-0.2,0-0.3,0-0.5,0
			c-13.1,0-24.1-3.8-30.9-10.6c-4.7-4.7-7.2-10.7-7.2-16.9l-0.2-27.5l11.3-0.1l0.2,27.6l0,0.1c0,3.2,1.3,6.3,3.9,8.8
			c4.7,4.8,13,7.3,23.2,7.3c10.5-0.1,18.8-2.8,23.5-7.5c2.5-2.5,3.7-5.5,3.7-8.6v0l-0.2-27.5l11.3-0.1L1024.3,508.3z"/>
		<path class="st0" d="M1117.9,481.3v54.3l-65.6-34.3v35h-11.3V482l65.6,34.3v-35H1117.9z"/>
		<path class="st0" d="M1211.4,508.9c-0.1,7.7-3.8,14.7-10.4,19.8c-6.9,5.3-16.6,8-28.1,8c-21.9,0-32.9-0.3-33-0.3l-5.5-0.2v-54.9
			h38.5c17.3,0,26.6,5.8,31.5,10.7C1209,496.7,1211.5,502.7,1211.4,508.9z M1200,508.8c0-3.2-1.3-6.2-3.8-8.8
			c-4.7-4.7-13-7.4-23.4-7.4h-27.2v32.5c5.3,0.1,14.3,0.2,27.2,0.2C1191.5,525.4,1199.9,517.1,1200,508.8z"/>
	</g>
	<g>
		<path class="st0" d="M1655,30c-206.8,0-375,168.2-375,375s168.2,375,375,375s375-168.2,375-375S1861.8,30,1655,30L1655,30z
			 M1655,761.3c-196.5,0-356.3-159.8-356.3-356.3S1458.5,48.7,1655,48.7s356.3,159.8,356.3,356.3S1851.5,761.3,1655,761.3
			L1655,761.3z"/>
		<polygon class="st0" points="1769.6,293.3 1823.3,293.3 1656.7,515.6 1490,293.3 1543.7,293.3 1656.7,444 1769.6,293.3 		"/>
	</g>
	<g>
		<polygon class="st0" points="204.9,265.6 233,265.6 145.7,382.1 58.4,265.6 86.5,265.6 145.7,344.5 204.9,265.6 		"/>
		<path class="st0" d="M394.9,352.5l11.3-0.2l0.3,22.5l-11.3,0.2c-1.8,0-3.7,0.1-5.9,0.1c-15.6,0-40.7-1.6-56.5-17.2
			c-7-6.9-11.5-15.8-13.3-26.3h-40.7l-0.2,43.4h-22.5l0.4-109.4h117.3c14.3,0,35.5,8.8,35.5,33c0,24.2-19.7,33-33,33h-33.7
			c1.2,4.1,3.2,7.5,6,10.3C359.9,353.1,383.5,352.7,394.9,352.5L394.9,352.5L394.9,352.5z M279,309.1l97.2,0c1,0,3.9-0.4,6.3-1.7
			c2.1-1.2,4.2-3.1,4.2-8.7c0-4.5-1.5-7-5.5-8.7c-3.6-1.6-7.5-1.7-7.5-1.7H279L279,309.1L279,309.1z"/>
		<polygon class="st0" points="596.2,287.9 464.6,287.9 464.6,309 552.3,309.4 552.2,332.1 464.6,331.8 464.6,352.9 596.2,352.9 
			596.2,375 441.8,375 441.8,265.6 596.2,265.6 596.2,287.9 596.2,287.9 		"/>
		<polygon class="st0" points="760.1,265.6 782.8,265.6 782.8,375 651.2,304.3 651.2,375 628.5,375 628.5,265.6 760.1,336.3 
			760.1,265.6 760.1,265.6 		"/>
		<rect x="815.2" y="265.6" class="st0" width="22.5" height="109.4"/>
		<polygon class="st0" points="870.2,265.6 1024.5,265.6 1024.5,288.4 958.7,288.4 958.7,375 936,375 936,288.4 870.2,288.4 
			870.2,265.6 870.2,265.6 		"/>
		<path class="st0" d="M1211.2,265.6l0.2,11.4c0.2,12.2-4.8,24.1-13.9,33.4c-8.6,8.8-24.3,19-52,21.4l-0.4,43.2l-22.7-0.2l0.4-42.9
			c-21.6-1.8-39.6-9-51.4-20.9c-9.4-9.5-14.5-21.6-14.3-34.1l0.2-11.4l22.7,0.3l-0.2,11.4c-0.1,6.4,2.6,12.5,7.7,17.7
			c9.5,9.6,26.1,14.8,46.6,14.6c21-0.2,37.7-5.5,47.1-15.1c4.9-5,7.5-11,7.4-17.2l-0.2-11.4L1211.2,265.6L1211.2,265.6z"/>
	</g>
</g>
<g id="VR_Outline">
	<path class="st1" d="M402.5,338.2c1.4-0.9,2.8-1.9,4.1-2.9c10.9-8.6,16.9-21.7,16.9-36.7c0-30.7-25.6-47.2-49.7-47.2H261.4h-19.1
		h-44.5l-52.1,69.4l-52.1-69.4H30l115.7,154.3L242.2,277l-0.4,112.2h50.9l0.2-43.4h15.6c3.1,8.5,7.8,16,14.2,22.3
		c8.9,8.7,20.7,14.8,35.1,18.2c12.1,2.8,23.7,3.1,31.4,3.1c2.2,0,4.2,0,6.1-0.1l25.5-0.4l-0.8-50.9L402.5,338.2z"/>
</g>
</svg>
